<svg xmlns="http://www.w3.org/2000/svg" xmlns:xlink="http://www.w3.org/1999/xlink" width="20" height="20" viewBox="0 0 20 20">
  <defs>
    <clipPath id="clip-path">
      <path id="Path_21" data-name="Path 21" d="M23.361,16.879a9.67,9.67,0,0,0,0,13.863,10.153,10.153,0,0,0,14.145,0,9.671,9.671,0,0,0,0-13.863,10.153,10.153,0,0,0-14.145,0" transform="translate(-20.434 -14.01)" fill="none"/>
    </clipPath>
  </defs>
  <g id="Group_53" data-name="Group 53" transform="translate(-780 -136)">
    <circle id="Ellipse_1" data-name="Ellipse 1" cx="10" cy="10" r="10" transform="translate(780 136)"/>
    <g id="Group_52" data-name="Group 52" transform="translate(780 136)">
      <g id="Group_48" data-name="Group 48" clip-path="url(#clip-path)">
        <path id="Path_20" data-name="Path 20" d="M12.887,0h-.005A12.769,12.769,0,0,0,0,12.625a12.348,12.348,0,0,0,1.818,6.46H1.9c.047,0,.095,0,.144,0h.01c.022,0,.042,0,.064,0,.1,0,.2,0,.3-.008l.132-.007c.1,0,.206-.011.31-.018l.117-.01c.107-.008.213-.018.318-.028L3.4,19c.11-.011.222-.025.33-.04.02,0,.041-.007.061-.008a13.13,13.13,0,0,0,1.9-.412l.012,0c.1-.032.207-.065.308-.1.022-.008.046-.015.069-.023.093-.032.185-.065.276-.1l.091-.033c.086-.033.171-.066.256-.1l.1-.04c.081-.035.163-.07.242-.106l.1-.045c.078-.036.156-.073.232-.111l.01,0,.088-.045c.076-.038.151-.077.225-.116.03-.017.061-.033.09-.051.076-.042.149-.083.222-.126l.029-.017a.416.416,0,0,0,.044-.028c.083-.05.164-.1.242-.151l.086-.058c.073-.048.144-.1.212-.148.034-.023.064-.046.1-.07.064-.046.125-.095.186-.143l.1-.083c.056-.045.112-.093.166-.139l.1-.093c.049-.045.1-.091.146-.138s.069-.068.1-.1.086-.091.13-.136.066-.073.1-.111.078-.09.115-.136.064-.078.095-.118.069-.091.1-.136.059-.083.088-.125.061-.091.09-.138.054-.086.08-.129.052-.093.078-.139l.055-.1h4.863l.049.091c.027.053.056.1.085.156.022.036.046.073.069.111s.066.1.1.157l.073.1c.039.055.078.108.118.161.024.032.049.061.074.093.046.055.09.109.137.163.026.028.051.055.074.083.053.056.105.111.159.166.024.025.047.048.071.071.059.058.118.116.181.173.022.018.044.038.066.058.068.06.136.118.207.176a.711.711,0,0,0,.058.047c.076.062.156.123.237.183l.042.031c.088.063.178.126.271.187l.024.017c.19.124.389.246.6.358l.031.017q.135.074.274.144c.017.01.036.018.052.027l.014.007c.083.043.169.081.256.123l.069.03c.088.04.176.079.268.118l.078.031c.09.036.181.073.272.108l.08.03c.095.033.188.068.284.1l.068.023c.1.033.2.066.308.1l.008,0a12.83,12.83,0,0,0,1.444.34l.112.02c.091.015.184.03.276.043l.147.022c.088.012.176.022.266.032.054.006.108.013.163.018.088.01.176.017.264.025.058,0,.113.01.173.013.086.006.174.011.262.016.059,0,.118.007.178.008.09,0,.178.007.268.008.027,0,.054,0,.081,0h.005c.054,0,.11,0,.164,0h.071s0,0,0,0a12.348,12.348,0,0,0,1.815-6.455A12.77,12.77,0,0,0,12.887,0m0,7.024,3.648,6.291H9.238Z" transform="translate(-2.882 -1.937)" fill="#fff"/>
      </g>
    </g>
  </g>
</svg>
